HIERARCHY
ROOT Hips
{
	OFFSET 0.00000 0.00000 0.00000
	CHANNELS 6 Xposition Yposition Zposition Zrotation Yrotation Xrotation 
	JOINT LHipJoint
	{
		OFFSET 0 0 0
		CHANNELS 3 Zrotation Yrotation Xrotation
		JOINT LeftHip
		{
			OFFSET 1.61024 -1.73873 0.75100
			CHANNELS 3 Zrotation Yrotation Xrotation
			JOINT LeftKnee
			{
				OFFSET 2.29819 -6.31424 0.00000
				CHANNELS 3 Zrotation Yrotation Xrotation
				JOINT LeftAnkle
				{
					OFFSET 2.76618 -7.60002 0.00000
					CHANNELS 3 Zrotation Yrotation Xrotation
					JOINT LeftToe
					{
						OFFSET 0.16838 -0.46263 2.02361
						CHANNELS 3 Zrotation Yrotation Xrotation
						End Site
						{
							OFFSET 0.00000 -0.00000 1.04662
						}
					}
				}
			}
		}
	}
	JOINT RHipJoint
	{
		OFFSET 0 0 0
		CHANNELS 3 Zrotation Yrotation Xrotation
		JOINT RightHip
		{
			OFFSET -1.46153 -1.73873 0.75100
			CHANNELS 3 Zrotation Yrotation Xrotation
			JOINT RightKnee
			{
				OFFSET -2.38373 -6.54924 0.00000
				CHANNELS 3 Zrotation Yrotation Xrotation
				JOINT RightAnkle
				{
					OFFSET -2.80314 -7.70157 0.00000
					CHANNELS 3 Zrotation Yrotation Xrotation
					JOINT RightToe
					{
						OFFSET -0.16142 -0.44349 2.02101
						CHANNELS 3 Zrotation Yrotation Xrotation
						End Site
						{
							OFFSET -0.00000 -0.00000 1.04381
						}
					}
				}
			}
		}
	}
	JOINT lowerback
	{
		OFFSET 0 0 0
		CHANNELS 3 Zrotation Yrotation Xrotation
		JOINT Chest
		{
			OFFSET -0.01629 1.66985 0.14750
			CHANNELS 3 Zrotation Yrotation Xrotation
			JOINT Chest2
			{
				OFFSET 0.02086 1.62378 0.20980
				CHANNELS 3 Zrotation Yrotation Xrotation
				JOINT lowerneck
				{
					OFFSET 0 0 0
					CHANNELS 3 Zrotation Yrotation Xrotation
					JOINT Neck
					{
						OFFSET -0.05690 1.78719 0.08702
						CHANNELS 3 Zrotation Yrotation Xrotation
						JOINT Head
						{
							OFFSET 0.16035 1.73871 -0.38470
							CHANNELS 3 Zrotation Yrotation Xrotation
							End Site
							{
								OFFSET 0.05645 1.80914 -0.14081
							}
						}
					}
				}
				JOINT LeftCollar
				{
					OFFSET 0 0 0
					CHANNELS 3 Zrotation Yrotation Xrotation
					JOINT LeftShoulder
					{
						OFFSET 2.83089 1.66494 -0.46008
CHANNELS 3 Zrotation Xrotation Yrotation
						JOINT LeftElbow
						{
OFFSET 0 -5.548930 -0.000000
CHANNELS 3 Zrotation Xrotation Yrotation
							JOINT LeftWrist
							{
OFFSET 0 -3.028980 -0.000000
CHANNELS 3 Zrotation Xrotation Yrotation
								JOINT lhand
								{
									OFFSET 0 0 0
CHANNELS 3 Zrotation Xrotation Yrotation
									JOINT LFingers
									{
OFFSET 0 -0.640950 -0.000000
CHANNELS 3 Zrotation Xrotation Yrotation
										End Site
										{
OFFSET 0 -0.516750 -0.000000
										}
									}
								}
								JOINT LThumb
								{
OFFSET 0 0.000000 0.000000
CHANNELS 3 Zrotation Xrotation Yrotation
									End Site
									{
OFFSET 0 -0.524640 0.524640
									}
								}
							}
						}
					}
				}
				JOINT RightCollar
				{
					OFFSET 0 0 0
					CHANNELS 3 Zrotation Yrotation Xrotation
					JOINT RightShoulder
					{
						OFFSET -2.84442 1.45761 -0.18088
CHANNELS 3 Zrotation Xrotation Yrotation
						JOINT RightElbow
						{
OFFSET 0 -5.351900 -0.000000
CHANNELS 3 Zrotation Xrotation Yrotation
							JOINT RightWrist
							{
OFFSET 0 -3.025310 -0.000000
CHANNELS 3 Zrotation Xrotation Yrotation
								JOINT rhand
								{
									OFFSET 0 0 0
CHANNELS 3 Zrotation Xrotation Yrotation
									JOINT RFingers
									{
OFFSET 0 -0.783890 -0.000000
CHANNELS 3 Zrotation Xrotation Yrotation
										End Site
										{
OFFSET 0 -0.631990 -0.000000
										}
									}
								}
								JOINT RThumb
								{
OFFSET 0 0.000000 0.000000
CHANNELS 3 Zrotation Xrotation Yrotation
									End Site
									{
OFFSET 0 -0.641640 0.641640
									}
								}
							}
						}
					}
				}
			}
		}
	}
}
MOTION
Frames: 4
Frame Time: 0.008333333333333333
-0.697100 17.907500 0.605200 -69.115600 87.896300 -53.557400 0.000000 0.000000 0.000000 0.000000 0.000000 0.000000 0.000000 0.000000 0.000000 0.000000 0.000000 0.000000 0.000000 0.000000 0.000000 0.000000 0.000000 0.000000 17.717200 16.891700 -11.674000 -0.405600 -4.088500 11.325900 0.229700 -13.246200 -15.696100 -0.749700 5.530300 -15.427600 -0.638500 -0.779300 -7.457700 0.501400 -0.446000 -10.916100 0.848300 0.087400 -7.268100 -5.902600 -3.997900 -17.162400 10.214200 -6.618300 28.631700 3.962900 -1.998900 13.000000 0.000000 -0.000000 0.000000 6.543800 -28.665800 -74.521300 114.992600 -57.503000 81.462800 30.092900 -15.509900 -5.330300 0.000000 0.000000 0.000000 -7.125000 0.000000 0.000000 2.861000 36.122000 0.625100 0.000000 -0.000000 0.000000 -105.292400 -59.292100 19.757900 -117.764300 -56.876800 -83.792500 -7.004800 -42.810600 -21.829000 0.000000 0.000000 0.000000 7.125000 0.000000 -0.000000 13.704200 8.499400 11.882500
-0.708419 17.907359 0.602676 -72.472618 87.840188 -56.940977 0.000000 0.000000 0.000000 0.000000 0.000000 0.000000 0.000000 0.000000 0.000000 0.000000 0.000000 0.000000 0.000000 0.000000 0.000000 0.000000 0.000000 0.000000 17.815035 16.893228 -11.615165 -0.398131 -4.051172 11.220767 0.238348 -13.316377 -15.682915 -0.740276 5.496329 -15.329887 -0.543118 -0.808991 -7.461923 0.550565 -0.489869 -10.864249 0.846401 0.058180 -7.207913 -5.789515 -3.979180 -17.287578 10.066818 -6.584855 28.734332 3.893438 -1.985569 13.054706 0.000000 0.000000 0.000000 6.521599 -29.057030 -74.619871 115.621456 -57.368050 81.992760 30.539997 -14.986875 -5.975791 0.000000 0.000000 0.000000 -7.125000 0.000000 0.000000 3.236993 36.892514 0.646453 0.000000 0.000000 0.000000 -105.438484 -59.349978 19.585501 -117.914582 -56.840480 -83.918341 -7.360663 -43.113665 -22.041612 0.000000 0.000000 0.000000 7.125000 0.000000 0.000000 13.482206 8.261490 11.743625
-0.717997 17.902505 0.601223 -74.384214 87.803284 -58.917575 0.000000 0.000000 0.000000 0.000000 0.000000 0.000000 0.000000 0.000000 0.000000 0.000000 0.000000 0.000000 0.000000 0.000000 0.000000 0.000000 0.000000 0.000000 17.882505 16.991897 -11.652801 -0.412710 -4.124034 11.425892 0.248703 -13.453038 -15.760713 -0.794782 5.690626 -15.889307 -0.421793 -0.787465 -7.374370 0.518875 -0.466783 -10.868426 0.746128 0.059016 -7.263873 -5.768716 -4.014585 -17.236586 10.123008 -6.659765 28.731458 3.900110 -2.008782 13.052601 0.000000 0.000000 0.000000 6.517681 -28.833751 -74.533938 115.377589 -57.420862 81.787326 30.743418 -15.641309 -5.288238 0.000000 0.000000 0.000000 -7.125000 0.000000 0.000000 3.408847 36.108943 0.746123 0.000000 0.000000 0.000000 -105.374485 -59.288266 19.535588 -118.115916 -56.791453 -84.086845 -7.326025 -43.101652 -22.031339 0.000000 0.000000 0.000000 7.125000 0.000000 0.000000 13.503720 8.274558 11.759994
-0.725150 17.901529 0.599176 -72.462295 87.799270 -57.049078 0.000000 0.000000 0.000000 0.000000 0.000000 0.000000 0.000000 0.000000 0.000000 0.000000 0.000000 0.000000 0.000000 0.000000 0.000000 0.000000 0.000000 0.000000 17.863702 16.853867 -11.685536 -0.413501 -4.127528 11.435807 0.225930 -13.227027 -15.721260 -0.792188 5.681319 -15.862596 -0.431849 -0.763786 -7.324775 0.517398 -0.436150 -10.868925 0.750844 0.074575 -7.292986 -5.872275 -3.984940 -17.138643 10.294253 -6.634526 28.703575 3.990843 -1.988414 13.029240 0.000000 0.000000 0.000000 6.529089 -28.830352 -74.607981 115.471781 -57.400557 81.866699 30.842998 -15.276808 -5.548315 0.000000 0.000000 0.000000 -7.125000 0.000000 0.000000 3.493783 36.415766 0.738639 0.000000 0.000000 0.000000 -105.382296 -59.362785 19.412552 -118.190238 -56.773218 -84.149027 -7.147669 -43.094966 -21.767085 0.000000 0.000000 0.000000 7.125000 0.000000 0.000000 13.615536 8.547657 11.787401
